HIERARCHY
ROOT Hips
{
	OFFSET 0.000000 0.000000 0.000000
	CHANNELS 6 Xposition Yposition Zposition Zrotation Yrotation Xrotation 
	JOINT LHipJoint
	{
		OFFSET 0.000000 0.000000 0.000000
		CHANNELS 3 Zrotation Yrotation Xrotation
		JOINT LeftUpLeg
		{
			OFFSET 1.363060 -1.794630 0.839290
			CHANNELS 3 Zrotation Yrotation Xrotation
			JOINT LeftLeg
			{
				OFFSET 2.448110 -6.726130 0.000000
				CHANNELS 3 Zrotation Yrotation Xrotation
				JOINT LeftFoot
				{
					OFFSET 2.562200 -7.039590 0.000000
					CHANNELS 3 Zrotation Yrotation Xrotation
					JOINT LeftToeBase
					{
						OFFSET 0.157640 -0.433110 2.322550
						CHANNELS 3 Zrotation Yrotation Xrotation
						End Site
						{
							OFFSET 0.000000 0.000000 0.000000
						}
					}
				}
			}
		}
	}
	JOINT RHipJoint
	{
		OFFSET 0.000000 0.000000 0.000000
		CHANNELS 3 Zrotation Yrotation Xrotation
		JOINT RightUpLeg
		{
			OFFSET -1.305520 -1.794630 0.839290
			CHANNELS 3 Zrotation Yrotation Xrotation
			JOINT RightLeg
			{
				OFFSET -2.542530 -6.985550 0.000000
				CHANNELS 3 Zrotation Yrotation Xrotation
				JOINT RightFoot
				{
					OFFSET -2.568260 -7.056230 0.000000
					CHANNELS 3 Zrotation Yrotation Xrotation
					JOINT RightToeBase
					{
						OFFSET -0.164730 -0.452590 2.363150
						CHANNELS 3 Zrotation Yrotation Xrotation
						End Site
						{
							OFFSET 0.000000 0.000000 0.000000
						}
					}
				}
			}
		}
	}
	JOINT LowerBack
	{
		OFFSET 0.000000 0.000000 0.000000
		CHANNELS 3 Zrotation Yrotation Xrotation
		JOINT Spine
		{
			OFFSET 0.028270 2.035590 -0.193380
			CHANNELS 3 Zrotation Yrotation Xrotation
			JOINT Spine1
			{
				OFFSET 0.056720 2.048850 -0.042750
				CHANNELS 3 Zrotation Yrotation Xrotation
				JOINT Neck
				{
					OFFSET 0.000000 0.000000 0.000000
					CHANNELS 3 Zrotation Yrotation Xrotation
					JOINT Neck1
					{
						OFFSET -0.054170 1.746240 0.172020
						CHANNELS 3 Zrotation Yrotation Xrotation
						JOINT Head
						{
							OFFSET 0.104070 1.761360 -0.123970
							CHANNELS 3 Zrotation Yrotation Xrotation
							End Site
							{
								OFFSET 0.000000 0.000000 0.000000
							}
						}
					}
				}
				JOINT LeftShoulder
				{
					OFFSET 0.000000 0.000000 0.000000
					CHANNELS 3 Zrotation Yrotation Xrotation
					JOINT LeftArm
					{
						OFFSET 3.362410 1.200890 -0.311210
						CHANNELS 3 Zrotation Yrotation Xrotation
						JOINT LeftForeArm
						{
							OFFSET 4.983000 -0.000000 -0.000000
							CHANNELS 3 Zrotation Yrotation Xrotation
							JOINT LeftHand
							{
								OFFSET 3.483560 -0.000000 -0.000000
								CHANNELS 3 Zrotation Yrotation Xrotation
								JOINT LeftFingerBase
								{
									OFFSET 0.000000 0.000000 0.000000
									CHANNELS 3 Zrotation Yrotation Xrotation
									JOINT LeftHandIndex1
									{
										OFFSET 0.715260 -0.000000 -0.000000
										CHANNELS 3 Zrotation Yrotation Xrotation
										End Site
										{
											OFFSET 0.000000 0.000000 0.000000
										}
									}
								}
								JOINT LThumb
								{
									OFFSET 0.000000 0.000000 0.000000
									CHANNELS 3 Zrotation Yrotation Xrotation
									End Site
									{
										OFFSET 0.000000 0.000000 0.000000
									}
								}
							}
						}
					}
				}
				JOINT RightShoulder
				{
					OFFSET 0.000000 0.000000 0.000000
					CHANNELS 3 Zrotation Yrotation Xrotation
					JOINT RightArm
					{
						OFFSET -3.136600 1.374050 -0.404650
						CHANNELS 3 Zrotation Yrotation Xrotation
						JOINT RightForeArm
						{
							OFFSET -5.241900 -0.000000 -0.000000
							CHANNELS 3 Zrotation Yrotation Xrotation
							JOINT RightHand
							{
								OFFSET -3.444170 -0.000000 -0.000000
								CHANNELS 3 Zrotation Yrotation Xrotation
								JOINT RightFingerBase
								{
									OFFSET 0.000000 0.000000 0.000000
									CHANNELS 3 Zrotation Yrotation Xrotation
									JOINT RightHandIndex1
									{
										OFFSET -0.622530 -0.000000 -0.000000
										CHANNELS 3 Zrotation Yrotation Xrotation
										End Site
										{
											OFFSET 0.000000 0.000000 0.000000
										}
									}
								}
								JOINT RThumb
								{
									OFFSET 0.000000 0.000000 0.000000
									CHANNELS 3 Zrotation Yrotation Xrotation
									End Site
									{
										OFFSET 0.000000 0.000000 0.000000
									}
								}
							}
						}
					}
				}
			}
		}
	}
}
MOTION
Frames: 6
Frame Time: 0.008333
-10.713300 18.073598 4.537955 -115.343065 89.057202 -95.732295 -2.343746 -0.812328 0.131452 -6.602128 -4.333766 -30.094069 -0.765047 6.403157 17.429122 1.194252 -5.569125 6.337412 0.777000 -5.628100 -15.709200 4.532249 1.581396 0.345788 6.206452 3.500592 -30.312229 -1.763208 -8.030899 24.059167 1.673550 -10.256778 -2.970455 -0.098300 2.021700 -5.565700 -1.628609 1.441889 2.899834 3.956938 1.644050 9.664691 4.380616 1.013079 1.719514 0.956705 -2.897292 -10.423025 -0.234210 -0.949316 33.854687 -1.961400 0.936300 16.815400 0.328797 5.603411 -2.105457 -102.690230 -21.410937 84.704863 24.152982 -37.752200 -7.295368 -0.445377 1.388626 -48.598107 22.590715 63.997989 19.681200 -7.125000 0.000000 0.000000 168.463500 5.374500 10.627800 0.507604 -4.080952 -1.718758 93.517029 15.245636 56.415857 -28.750808 42.410452 -10.752609 -0.341811 -0.383537 -50.131821 -32.370173 -6.657225 4.155700 7.125000 0.000000 0.000000 -4.363700 -37.838900 -0.771100 
-10.713100 18.073998 4.536055 -123.246555 88.841680 -103.574852 -2.263002 -0.719394 0.148809 -6.559010 -4.387501 -30.191892 -0.784825 6.388413 17.317656 1.247353 -5.926570 6.484354 0.738100 -5.488400 -15.307000 4.604460 1.691198 0.320280 6.328490 3.233142 -30.351700 -1.767821 -7.997597 24.030859 1.701330 -10.372951 -2.895772 -0.138900 2.401600 -6.616900 -1.358064 1.486383 2.842749 3.967045 1.689723 9.612574 4.252056 1.061727 1.732806 0.958200 -2.932092 -10.410724 -0.188493 -1.000331 33.883057 -1.946900 0.928800 16.824200 0.324730 5.626196 -2.106788 -102.646832 -21.414016 84.735106 24.124879 -37.726159 -7.281110 -0.438672 1.398575 -48.594330 23.378914 63.749035 20.357400 -7.125000 0.000000 0.000000 168.738400 5.259400 10.389000 0.505828 -4.056563 -1.709337 93.571922 15.194585 56.479651 -28.756153 42.408001 -10.750593 -0.346858 -0.382666 -50.220600 -32.723306 -6.599333 4.180700 7.125000 0.000000 0.000000 -4.664700 -37.804100 -0.828500 
-10.713300 18.075599 4.534454 -130.510604 88.649746 -110.816680 -2.171840 -0.635849 0.159861 -6.602376 -4.438240 -30.253174 -0.803628 6.369451 17.219360 1.291548 -6.253123 6.608936 0.710700 -5.387800 -15.018100 4.693485 1.789101 0.304286 6.340263 2.986778 -30.348491 -1.771305 -7.979582 24.023199 1.709677 -10.394726 -2.932678 -0.131100 2.333900 -6.429300 -1.128952 1.514881 2.841577 3.938346 1.714216 9.565043 4.144539 1.094702 1.712277 1.021156 -2.933838 -10.357313 -0.188659 -1.022898 33.841255 -1.960600 0.930900 16.784900 0.321778 5.639269 -2.104607 -102.572377 -21.399791 84.697492 24.097997 -37.696737 -7.268218 -0.452195 1.358492 -48.473476 19.008636 64.084890 16.430800 -7.125000 0.000000 0.000000 167.457700 4.962100 11.700300 0.507822 -4.041522 -1.704206 93.597967 15.041680 56.504201 -28.879858 42.511231 -10.828383 -0.346088 -0.381276 -50.249190 -32.812432 -6.558178 4.169900 7.125000 0.000000 0.000000 -4.742100 -37.762800 -0.847100 
-10.713700 18.075699 4.536055 -134.767118 88.458736 -115.104645 -2.100540 -0.588598 0.165934 -6.655258 -4.332033 -30.289028 -0.818108 6.337047 17.120493 1.334528 -6.573489 6.759041 0.699800 -5.347200 -14.901600 4.765951 1.841686 0.300656 6.346487 2.923965 -30.272108 -1.773972 -7.983344 24.043083 1.733002 -10.509595 -3.095021 -0.108300 2.121900 -5.842700 -1.109489 1.527772 2.898372 4.067383 1.722476 9.563243 4.205290 1.114902 1.679082 1.015230 -2.893195 -10.366810 -0.223263 -0.965362 33.766799 -1.967000 0.944400 16.748500 0.313992 5.643902 -2.102089 -102.532058 -21.429644 84.639943 24.100509 -37.704822 -7.280611 -0.452312 1.338327 -48.495651 16.686892 63.877636 14.302100 -7.125000 0.000000 0.000000 166.844400 4.497900 12.421900 0.497172 -4.035455 -1.702879 93.498515 14.942037 56.615611 -29.067739 42.672776 -10.948134 -0.344071 -0.381962 -50.334442 -32.903539 -6.542234 4.173700 7.125000 0.000000 0.000000 -4.820900 -37.748900 -0.862900 
-10.713300 18.073098 4.537055 -139.873831 88.214512 -120.209698 -2.006614 -0.541919 0.162195 -6.706516 -4.318250 -30.321700 -0.834168 6.298669 17.011211 1.370159 -6.856804 6.920537 0.647500 -5.147400 -14.329500 4.860139 1.897144 0.299809 6.339844 2.813732 -30.253214 -1.781527 -7.999332 24.090741 1.772439 -10.710411 -3.230727 -0.120400 2.236900 -6.161000 -1.138789 1.525202 2.904171 4.276610 1.709586 9.544477 4.330540 1.124262 1.667225 0.891908 -2.884480 -10.371868 -0.232864 -0.917106 33.733210 -1.942400 0.944400 16.734600 0.302753 5.652430 -2.102193 -102.569946 -21.452474 84.711023 24.112195 -37.717291 -7.290676 -0.445229 1.349182 -48.678486 17.866469 63.579389 15.321300 -7.125000 0.000000 0.000000 167.232400 4.344100 12.073400 0.480560 -4.023535 -1.699592 93.323984 14.916124 56.756836 -29.181373 42.769102 -11.019235 -0.344382 -0.383695 -50.449144 -33.069431 -6.538651 4.198300 7.125000 0.000000 0.000000 -4.962200 -37.757100 -0.887400 
-10.713400 18.070397 4.536455 -144.972737 87.935985 -125.281474 -1.913066 -0.506215 0.148246 -6.731215 -4.442609 -30.316443 -0.851782 6.252292 16.887263 1.391962 -7.045744 7.074503 0.594400 -4.935900 -13.725700 4.951950 1.947087 0.303859 6.365157 2.531887 -30.339629 -1.792437 -8.024660 24.159402 1.783690 -10.769296 -3.252093 -0.137600 2.390600 -6.586500 -1.030714 1.552626 2.883731 4.368038 1.740382 9.505894 4.340654 1.149370 1.659235 0.878865 -2.929103 -10.361542 -0.262667 -0.967637 33.722296 -1.960000 0.923000 16.724200 0.294824 5.656719 -2.103869 -102.630465 -21.469398 84.880592 24.078564 -37.680693 -7.265297 -0.436059 1.376207 -48.666110 20.734108 63.474733 17.896800 -7.125000 0.000000 0.000000 168.065500 4.607800 11.187500 0.471767 -4.017684 -1.695166 93.281406 14.910535 56.697623 -29.163445 42.751894 -11.005633 -0.346089 -0.382241 -50.534541 -33.182859 -6.418467 4.142400 7.125000 0.000000 0.000000 -5.057600 -37.627200 -0.920700 
